<?xml version="1.0" standalone="no"?>
<!DOCTYPE svg PUBLIC "-//W3C//DTD SVG 20010904//EN"
 "http://www.w3.org/TR/2001/REC-SVG-20010904/DTD/svg10.dtd">
<svg version="1.0" xmlns="http://www.w3.org/2000/svg"
 width="360.000000pt" height="360.000000pt" viewBox="0 0 360.000000 360.000000"
 preserveAspectRatio="xMidYMid meet">

<g transform="translate(0.000000,360.000000) scale(0.100000,-0.100000)"
fill="#000000" stroke="none">
<path d="M1690 3593 c-61 -9 -170 -38 -228 -60 -90 -33 -146 -63 -251 -133
l-92 -62 -53 -111 c-30 -62 -62 -146 -71 -188 -18 -74 -17 -77 10 -280 26
-195 28 -206 60 -249 18 -25 42 -64 54 -87 12 -24 23 -43 24 -43 2 0 1 26 -1
58 -2 31 0 80 6 107 13 68 75 339 78 344 2 2 34 -15 72 -37 187 -107 340 -125
452 -53 25 17 86 54 135 83 89 52 91 53 170 53 68 0 88 -5 133 -28 87 -46 137
-99 195 -210 29 -56 71 -119 95 -143 41 -41 42 -44 42 -111 l1 -68 30 65 c17
36 41 76 54 90 21 22 25 40 33 130 21 247 -10 456 -90 597 -104 185 -453 346
-741 342 -51 -1 -103 -3 -117 -6z"/>
<path d="M915 1305 c-143 -35 -284 -73 -313 -84 -192 -76 -362 -267 -447 -504
-14 -38 -52 -205 -85 -371 -33 -165 -62 -311 -65 -323 l-5 -23 1801 0 1801 0
-6 28 c-3 15 -13 79 -21 142 -19 140 -42 298 -60 405 -25 158 -115 349 -218
461 -100 110 -212 177 -357 215 -226 59 -494 119 -500 112 -4 -4 -60 -170
-125 -368 -318 -978 -297 -915 -305 -915 -3 0 -25 144 -49 319 l-43 320 26 57
c14 31 26 58 26 59 0 1 -34 26 -75 55 l-76 52 -52 -36 c-29 -20 -62 -44 -75
-54 l-23 -18 26 -58 26 -58 -41 -306 c-23 -169 -44 -314 -47 -322 -7 -21 -14
1 -139 385 -232 720 -290 890 -305 892 -8 1 -131 -27 -274 -62z"/>
</g>
</svg>
