<?xml version="1.0" standalone="no"?>
<!DOCTYPE svg PUBLIC "-//W3C//DTD SVG 20010904//EN"
 "http://www.w3.org/TR/2001/REC-SVG-20010904/DTD/svg10.dtd">
<svg version="1.0" xmlns="http://www.w3.org/2000/svg"
 width="50.000000pt" height="50.000000pt" viewBox="0 0 50.000000 50.000000"
 preserveAspectRatio="xMidYMid meet">

<g transform="translate(0.000000,50.000000) scale(0.100000,-0.100000)"
fill="#000000" stroke="none">
<path d="M230 440 c0 -13 7 -20 20 -20 13 0 20 7 20 20 0 13 -7 20 -20 20 -13
0 -20 -7 -20 -20z"/>
<path d="M32 398 c-17 -17 -17 -279 0 -296 17 -17 419 -17 436 0 17 17 17 279
0 296 -8 8 -46 12 -105 12 -86 0 -93 -1 -93 -20 0 -13 -7 -20 -20 -20 -13 0
-20 7 -20 20 0 19 -7 20 -93 20 -59 0 -97 -4 -105 -12z m176 -102 c9 -42 -58
-64 -78 -26 -12 22 0 55 22 63 18 6 52 -17 56 -37z m212 -6 c0 -18 -7 -20 -65
-20 -58 0 -65 2 -65 20 0 18 7 20 65 20 58 0 65 -2 65 -20z m-192 -76 c12 -8
22 -24 22 -35 0 -17 -7 -19 -80 -19 -66 0 -82 3 -87 17 -17 43 95 72 145 37z
m192 -4 c0 -18 -7 -20 -65 -20 -58 0 -65 2 -65 20 0 18 7 20 65 20 58 0 65 -2
65 -20z"/>
</g>
</svg>
