<?xml version="1.0" standalone="no"?>
<!DOCTYPE svg PUBLIC "-//W3C//DTD SVG 20010904//EN"
 "http://www.w3.org/TR/2001/REC-SVG-20010904/DTD/svg10.dtd">
<svg version="1.0" xmlns="http://www.w3.org/2000/svg"
 width="50.000000pt" height="50.000000pt" viewBox="0 0 50.000000 50.000000"
 preserveAspectRatio="xMidYMid meet">

<g transform="translate(0.000000,50.000000) scale(0.100000,-0.100000)"
fill="#000000" stroke="none">
<path d="M180 447 c-71 -23 -140 -120 -140 -197 0 -49 26 -106 66 -147 83 -82
206 -81 290 3 155 154 -6 408 -216 341z m114 -93 c9 -8 16 -26 16 -40 0 -13 5
-24 10 -24 6 0 10 -27 10 -60 l0 -60 -80 0 -80 0 0 60 c0 33 4 60 10 60 6 0
10 11 10 24 0 33 25 56 60 56 16 0 36 -7 44 -16z"/>
<path d="M227 334 c-4 -4 -7 -16 -7 -26 0 -13 8 -18 31 -18 26 0 30 3 27 23
-3 22 -36 36 -51 21z"/>
<path d="M234 239 c-10 -17 13 -36 27 -22 12 12 4 33 -11 33 -5 0 -12 -5 -16
-11z"/>
</g>
</svg>
