<?xml version="1.0" standalone="no"?>
<!DOCTYPE svg PUBLIC "-//W3C//DTD SVG 20010904//EN"
 "http://www.w3.org/TR/2001/REC-SVG-20010904/DTD/svg10.dtd">
<svg version="1.0" xmlns="http://www.w3.org/2000/svg"
 width="50.000000pt" height="50.000000pt" viewBox="0 0 50.000000 50.000000"
 preserveAspectRatio="xMidYMid meet">

<g transform="translate(0.000000,50.000000) scale(0.100000,-0.100000)"
fill="#000000" stroke="none">
<path d="M142 390 c-47 -19 -48 -85 -2 -110 28 -15 48 -12 70 10 27 27 25 56
-5 85 -26 27 -29 28 -63 15z"/>
<path d="M295 376 c-30 -30 -32 -59 -5 -86 27 -27 56 -25 86 5 18 19 23 31 19
48 -16 53 -64 69 -100 33z"/>
<path d="M98 217 c-56 -18 -78 -41 -78 -82 l0 -35 146 0 145 0 -3 42 c-3 35
-8 45 -35 61 -41 23 -127 30 -175 14z"/>
<path d="M331 214 c7 -9 16 -37 19 -63 l5 -46 63 -3 62 -3 0 35 c0 23 -7 42
-21 55 -20 18 -89 41 -125 41 -14 0 -14 -2 -3 -16z"/>
</g>
</svg>
